<?xml version="1.0" encoding="UTF-8" standalone="no"?>
<!-- Created with Inkscape (http://www.inkscape.org/) -->

<svg
   version="1.1"
   id="svg2"
   width="769"
   height="700"
   viewBox="0 0 769 700"
   sodipodi:docname="emmo-logo.svg"
   inkscape:version="1.1.2 (0a00cf5339, 2022-02-04)"
   xml:space="preserve"
   xmlns:inkscape="http://www.inkscape.org/namespaces/inkscape"
   xmlns:sodipodi="http://sodipodi.sourceforge.net/DTD/sodipodi-0.dtd"
   xmlns="http://www.w3.org/2000/svg"
   xmlns:svg="http://www.w3.org/2000/svg"><defs
     id="defs6" /><sodipodi:namedview
     id="namedview4"
     pagecolor="#ffffff"
     bordercolor="#000000"
     borderopacity="0.25"
     inkscape:showpageshadow="2"
     inkscape:pageopacity="0.0"
     inkscape:pagecheckerboard="0"
     inkscape:deskcolor="#d1d1d1"
     showgrid="false"
     showguides="true"
     inkscape:zoom="1.4671429"
     inkscape:cx="348.6368"
     inkscape:cy="365.67672"
     inkscape:window-width="2560"
     inkscape:window-height="1388"
     inkscape:window-x="1920"
     inkscape:window-y="0"
     inkscape:window-maximized="1"
     inkscape:current-layer="g8"
     inkscape:pageshadow="2" /><g
     inkscape:groupmode="layer"
     inkscape:label="Image"
     id="g8"><circle
       style="fill:#ffffff;stroke-width:1.00157"
       id="path850"
       cx="389.50281"
       cy="411.99164"
       r="89.803589" /><path
       id="path2042"
       style="fill-opacity:1;stroke-width:2.8;stroke-linejoin:round;fill:#6d6e71"
       d="M 389.63989 -32.502552 L 94.649375 478.43655 C 94.4906 478.71072 94.325851 478.97669 94.167351 479.25121 L 94.177311 479.25719 L 58.384066 541.25101 L 648.42086 541.25101 C 648.71891 541.25138 649.01302 541.26096 649.31121 541.26097 L 649.31121 541.25101 L 720.89571 541.25101 L 425.87731 30.262108 C 425.72881 30.00415 425.59 29.74519 425.4411 29.487285 L 425.43313 29.491268 L 389.63989 -32.502552 z M 389.63989 50.156539 C 434.97691 128.68259 458.1566 202.75188 466.21393 262.91023 A 116.02231 116.02231 0 0 0 389.63989 233.97686 C 384.50965 233.99199 379.21409 234.3768 373.77693 235.11221 A 116.02231 116.02231 0 0 0 371.98627 235.407 C 334.67759 240.94906 290.79605 262.91354 246.50276 298.08003 L 389.63989 50.156539 z M 506.1721 251.99897 L 649.31121 499.92246 C 558.50186 499.92245 482.68032 482.90985 426.52864 459.75515 A 116.02231 116.02231 0 0 0 489.89085 407.87984 L 490.11991 408.0113 C 491.70177 405.25268 493.16045 402.32727 494.5617 399.32492 A 116.02231 116.02231 0 0 0 495.73091 396.71363 C 511.26585 361.37711 514.86011 310.49707 506.1721 251.99897 z M 389.63989 275.30541 A 74.694126 74.694126 0 0 1 464.33364 349.99916 A 74.694126 74.694126 0 0 1 460.08307 374.60228 C 459.91568 375.05251 459.78232 375.57495 459.611 376.01649 A 74.694126 74.694126 0 0 1 389.63989 424.69291 A 74.694126 74.694126 0 0 1 333.10967 398.70147 C 332.80482 398.33302 332.42114 397.95755 332.1257 397.59003 A 74.694126 74.694126 0 0 1 324.95311 387.34803 A 74.694126 74.694126 0 0 1 314.94614 349.99916 A 74.694126 74.694126 0 0 1 375.70502 276.69969 C 376.18815 276.61783 376.71758 276.46875 377.19491 276.39494 A 74.694126 74.694126 0 0 1 389.63989 275.30541 z M 276.20299 327.02535 A 116.02231 116.02231 0 0 0 273.61759 349.99916 A 116.02231 116.02231 0 0 0 289.38893 407.87984 L 289.16186 408.0113 C 289.87103 409.23131 290.68146 410.44085 291.45047 411.65437 A 116.02231 116.02231 0 0 0 292.58582 413.45897 C 295.2063 417.43091 298.16676 421.36044 301.40964 425.24863 A 116.02231 116.02231 0 0 0 302.24023 426.26247 C 326.10878 454.36471 365.83289 480.01155 416.24481 499.92246 L 129.96856 499.92246 C 175.39179 421.24715 228.05874 364.07582 276.20299 327.02535 z "
       transform="matrix(0.98056649,0,0,0.98056649,5.0200726,70.263491)" /><circle
       style="fill:#69bd45;fill-opacity:1;stroke:none;stroke-width:5.30912;stroke-linejoin:round"
       id="path293"
       cx="387.08759"
       cy="152.16096"
       r="113.76759" /><path
       id="circle1288"
       style="fill:#ed1f24;fill-opacity:1;stroke-width:5.30912;stroke-linejoin:round"
       d="M 711.92462,601.00634 A 113.76759,113.76759 0 0 1 556.51519,642.64817 113.76759,113.76759 0 0 1 514.87337,487.23874 113.76759,113.76759 0 0 1 670.28279,445.59692 113.76759,113.76759 0 0 1 711.92462,601.00634 Z" /><path
       id="circle1286"
       style="fill:#3853a4;fill-opacity:1;stroke-width:5.30912;stroke-linejoin:round"
       d="M 259.30244,487.23874 A 113.76759,113.76759 0 0 1 217.66061,642.64816 113.76759,113.76759 0 0 1 62.251195,601.00634 113.76759,113.76759 0 0 1 103.89302,445.59692 113.76759,113.76759 0 0 1 259.30244,487.23874 Z" /><path
       id="rect2235"
       style="fill:#ffffff;fill-opacity:1;stroke-width:2.8;stroke-linejoin:round"
       d="m 336.69986,124.25373 -0.0859,55.81446 h 0.0859 11.29883 33.35547 11.38281 33.35547 11.38477 0.084 v -13.34571 h -0.0644 l 0.0644,-42.46875 H 426.1784 l -0.0644,42.46875 h -33.35547 l 0.0645,-39.26953 h -11.38476 l -0.0625,39.26953 H 348.0203 l 0.0644,-42.46875 z" /><path
       id="path2253"
       style="fill:#ffffff;fill-opacity:1;stroke-width:2.8;stroke-linejoin:round"
       d="m 662.76123,514.43911 -48.29379,-27.98162 -0.043,0.0744 -5.64941,9.78507 -16.67774,28.88669 -5.6914,9.8578 -16.67774,28.88668 -5.69238,9.8595 -0.042,0.0727 11.55772,6.67285 0.0322,-0.0558 36.74682,21.29015 5.6914,-9.8578 -36.74681,-21.29015 16.67773,-28.88668 33.97616,19.69062 5.69238,-9.85949 -33.97716,-19.68889 16.67774,-28.88669 36.74681,21.29015 z" /><path
       id="path2261"
       style="fill:#ffffff;fill-opacity:1;stroke-width:2.8;stroke-linejoin:round"
       d="m 161.80231,601.7132 48.37969,-27.83284 -0.0429,-0.0744 -5.64942,-9.78507 -16.67773,-28.88669 -5.69141,-9.8578 -16.67773,-28.88668 -5.69239,-9.8595 -0.042,-0.0728 -11.55772,6.67285 0.0322,0.0558 -36.81122,21.1786 5.69141,9.8578 36.81121,-21.1786 16.67774,28.88668 -34.04066,19.57891 5.69238,9.85949 34.03966,-19.58064 16.67773,28.88669 -36.81121,21.1786 z" /></g></svg>
